<svg xmlns="http://www.w3.org/2000/svg" width="12.31" height="16" viewBox="0 0 12.31 16">
  <path id="Icon_awesome-pinterest-p" data-name="Icon awesome-pinterest-p" d="M6.54.457C3.251.457,0,2.65,0,6.2,0,8.455,1.269,9.738,2.039,9.738c.317,0,.5-.885.5-1.135,0-.3-.76-.933-.76-2.173a4.332,4.332,0,0,1,4.5-4.4c2.183,0,3.8,1.241,3.8,3.52,0,1.7-.683,4.9-2.895,4.9A1.423,1.423,0,0,1,5.7,9.036c0-1.212.846-2.385.846-3.635,0-2.122-3.01-1.738-3.01.827a3.766,3.766,0,0,0,.308,1.625C3.4,9.757,2.5,12.594,2.5,14.556c0,.606.087,1.2.144,1.808.109.122.054.109.221.048,1.616-2.212,1.558-2.645,2.289-5.539a2.6,2.6,0,0,0,2.222,1.154c3.4,0,4.934-3.318,4.934-6.309C12.31,2.534,9.559.457,6.54.457Z" transform="translate(0 -0.457)" fill="#59695e"/>
</svg>
