<svg id="Group_90" data-name="Group 90" xmlns="http://www.w3.org/2000/svg" width="27.581" height="38.443" viewBox="0 0 27.581 38.443">
  <g id="iconfinder_diamond_430094">
    <path id="Path_119" data-name="Path 119" d="M41.035,27.029H14.557a.554.554,0,0,1-.5-.3.5.5,0,0,1,.078-.555l6.35-7.1a.565.565,0,0,1,.422-.185H34.686a.565.565,0,0,1,.422.185l6.349,7.1a.5.5,0,0,1,.078.555A.555.555,0,0,1,41.035,27.029ZM15.744,25.988h24.1L34.43,19.925H21.164Z" transform="translate(-14.006 -18.884)" fill="#59695e"/>
    <path id="Path_120" data-name="Path 120" d="M28.136,62.875l-13.661-15.3.844-.67L28.136,61.26,40.953,46.9l.844.67Z" transform="translate(-14.346 -39.615)" fill="#5f6060"/>
    <path id="Path_121" data-name="Path 121" d="M48,41.891h0a.55.55,0,0,1-.52-.347L41.94,26.715a.5.5,0,0,1,.076-.482l5.543-7.1a.594.594,0,0,1,.888,0l5.544,7.1a.5.5,0,0,1,.076.482L48.523,41.544A.55.55,0,0,1,48,41.891ZM43.078,26.629,48,39.806l4.926-13.177L48,20.316Z" transform="translate(-34.213 -18.918)" fill="#5f6060"/>
    <path id="Path_126" data-name="Path 126" d="M.011.075,7.241,0,7.23,1.1,0,1.177Z" transform="translate(7.517 0.405) rotate(79.869)" fill="#5f6060"/>
    <path id="Path_127" data-name="Path 127" d="M.075.011,1.177,0,1.1,7.23,0,7.241Z" transform="translate(20.066 0.404) rotate(10.137)" fill="#5f6060"/>
  </g>
  <g id="Group_47" data-name="Group 47" transform="translate(0.703 3.153)">
    <path id="Path_122" data-name="Path 122" d="M0,13.729l13.295-.389L13.729,0" transform="translate(13.158 0) rotate(45)" fill="none" stroke="#59695e" stroke-linecap="round" stroke-width="3"/>
    <path id="Path_123" data-name="Path 123" d="M5406,501.581V489.315" transform="translate(-5393.012 -482.747)" fill="none" stroke="#59695e" stroke-linecap="round" stroke-width="3"/>
    <g id="Path_129" data-name="Path 129" transform="translate(0 10.29)" fill="#fff">
      <path d="M 13 23.5 C 6.658880233764648 23.5 1.5 18.56542015075684 1.5 12.5 C 1.5 6.434579849243164 6.658880233764648 1.5 13 1.5 C 19.34111976623535 1.5 24.5 6.434579849243164 24.5 12.5 C 24.5 18.56542015075684 19.34111976623535 23.5 13 23.5 Z" stroke="none"/>
      <path d="M 13 3 C 7.485979080200195 3 3 7.261680603027344 3 12.5 C 3 17.73831939697266 7.485979080200195 22 13 22 C 18.51401901245117 22 23 17.73831939697266 23 12.5 C 23 7.261680603027344 18.51401901245117 3 13 3 M 13 0 C 20.1796989440918 0 26 5.596439361572266 26 12.5 C 26 19.40356063842773 20.1796989440918 25 13 25 C 5.82029914855957 25 0 19.40356063842773 0 12.5 C 0 5.596439361572266 5.82029914855957 0 13 0 Z" stroke="none" fill="#59695e"/>
    </g>
  </g>
</svg>
