<svg xmlns="http://www.w3.org/2000/svg" width="21.584" height="19.164" viewBox="0 0 21.584 19.164">
  <g id="iconfinder_heart_1814104" transform="translate(0.5 0.5)">
    <g id="Icon-Heart" transform="translate(0)">
      <path id="Fill-18" d="M-159.608-200.9l-.344-.3c-7.837-6.373-9.947-8.612-9.947-12.273a5.431,5.431,0,0,1,5.426-5.426,6.219,6.219,0,0,1,4.866,2.5,6.219,6.219,0,0,1,4.866-2.5,5.431,5.431,0,0,1,5.426,5.426c0,3.66-2.11,5.9-9.947,12.273l-.344.3Zm-4.866-16.88a4.319,4.319,0,0,0-4.306,4.306c0,3.144,1.981,5.211,9.172,11.11,7.191-5.9,9.172-7.967,9.172-11.11a4.319,4.319,0,0,0-4.306-4.306,5.376,5.376,0,0,0-4.22,2.325l-.646.732-.646-.732a5.376,5.376,0,0,0-4.22-2.325Z" transform="translate(169.9 218.9)" fill="#333" stroke="#333" stroke-width="1"/>
    </g>
  </g>
</svg>
